# xmcd
#
# Track frame offsets:
#	182
#	13535
#	24772
#	38855
#	52445
#	67190
#	83670
#	95162
#	106817
#	117262
#	129067
#	142810
#	152060
#	163667
#	178402
#	193455
#	204010
#	221170
#	235187
#	247307
#	258765
#	268055
#	278572
#	287962
#	300840
#	318132
#	330662
#
# Disc length: 4567 seconds
#
# Revision: 10
# Processed by: cddbd v1.5.2PL0 Copyright (c) Steve Scherf et al.
# Submitted via: EZCDAudioConverter 2.1.7.1
#
DISCID=8511d51b
DTITLE=V/A - Nuggets II 1/4
DYEAR=2001
DGENRE=
TTITLE0=The Creation - Making Time
TTITLE1=Fire - Father's Name Was Dad
TTITLE2=The Move - I Can Hear The Grass Grow
TTITLE3=The Smoke - My Friend Jack
TTITLE4=Tomorrow - My White Bicycle
TTITLE5=The Action - I'll Keep Holding On
TTITLE6=The Eyes - When The Night Falls
TTITLE7=The Easybeats - Sorry
TTITLE8=Idle Race - Imposters Of Life's Magazine
TTITLE9=La De Das - How Is The Air Up There?
TTITLE10=Les Fleur De Lys - Mud In Your Eye
TTITLE11=The Motions - Everything (That's Mine)
TTITLE12=Mickey Finn - Garden Of My Mind
TTITLE13=The Sorrows - Take A Heart
TTITLE14=Q'65 - The Life I Live
TTITLE15=Pretty Things - Midnight To Six Man
TTITLE16=The Marmalade - I See The Rain
TTITLE17=The Koobas - The First Cut Is The Deepest
TTITLE18=The Mockingbirds - You Stole My Love
TTITLE19=The Haunted - 125
TTITLE20=Small Faces - My Mind's Eye
TTITLE21=Los Bravos - Going Nowhere
TTITLE22=The Thoughts - All Night Stand
TTITLE23=Masters Apprentices - War Or Hands Of Time
TTITLE24=We All Together - It's A Sin To Go Away
TTITLE25=Kaleidoscope - A Dream For Julie
TTITLE26=The Tages - I Read You Like An Open Book
EXTD=
EXTT0=
EXTT1=
EXTT2=
EXTT3=
EXTT4=
EXTT5=
EXTT6=
EXTT7=
EXTT8=
EXTT9=
EXTT10=
EXTT11=
EXTT12=
EXTT13=
EXTT14=
EXTT15=
EXTT16=
EXTT17=
EXTT18=
EXTT19=
EXTT20=
EXTT21=
EXTT22=
EXTT23=
EXTT24=
EXTT25=
EXTT26=
PLAYORDER=
